<?xml version="1.0" encoding="utf-8"?>
<!-- Generator: Adobe Illustrator 21.0.0, SVG Export Plug-In . SVG Version: 6.00 Build 0)  -->
<svg version="1.1" id="Слой_1" xmlns="http://www.w3.org/2000/svg" xmlns:xlink="http://www.w3.org/1999/xlink" x="0px" y="0px"
	 viewBox="0 0 20.6 19.7" style="enable-background:new 0 0 20.6 19.7;" xml:space="preserve">
<style type="text/css">
	.st0{fill:#FFFFFF;}
</style>
<path id="bg-cart" class="st0" d="M20.6,4.4l-1.2,8.9c-0.2,0.9-1,1.6-1.9,1.6H6.6c-0.9-0.1-1.7-0.7-1.9-1.6L3.3,3.1
	C3.2,2.7,3.1,2.4,3.1,2H1C0.4,2,0,1.6,0,1s0.4-1,1-1h4c0.6,0,1,0.4,1,1c0,0.5-0.4,0.9-0.9,1h14C20.2,2,20.8,3.1,20.6,4.4z M6.7,12.9
	l-1.3-9h13.2l0,0.2l-1.2,8.8c0,0,0,0,0,0L6.7,12.9L6.7,12.9z M7.2,16c1,0,1.9,0.8,1.9,1.9s-0.8,1.9-1.9,1.9c-1,0-1.9-0.8-1.9-1.9
	C5.4,16.8,6.2,16,7.2,16C7.2,16,7.2,16,7.2,16L7.2,16z M16.2,16c1,0,1.9,0.8,1.9,1.9s-0.8,1.9-1.9,1.9c-1,0-1.9-0.8-1.9-1.9
	C14.4,16.8,15.2,16,16.2,16C16.2,16,16.2,16,16.2,16L16.2,16z"/>
</svg>
