<?xml version="1.0" encoding="iso-8859-1"?>
<!-- Generator: Adobe Illustrator 16.0.0, SVG Export Plug-In . SVG Version: 6.00 Build 0)  -->
<!DOCTYPE svg PUBLIC "-//W3C//DTD SVG 1.1//EN" "http://www.w3.org/Graphics/SVG/1.1/DTD/svg11.dtd">
<svg xmlns="http://www.w3.org/2000/svg" xmlns:xlink="http://www.w3.org/1999/xlink" version="1.1" id="Capa_1" x="0px" y="0px" width="23px" height="23px" viewBox="0 0 32.028 32.028" style="enable-background:new 0 0 32.028 32.028;" xml:space="preserve">
<g>
	<g id="Cart">
		<g>
			<path d="M31.998,0.772c-0.133-0.535-0.677-0.863-1.213-0.728l-4.004,1c-0.39,0.098-0.684,0.418-0.746,0.813l-0.507,3.208     L0.878,8.022c-0.019,0.002-0.034,0.016-0.055,0.02C0.8,8.046,0.779,8.039,0.755,8.045c-0.057,0.014-0.1,0.049-0.15,0.071     c-0.057,0.024-0.11,0.043-0.16,0.076C0.375,8.24,0.318,8.302,0.263,8.365C0.234,8.396,0.198,8.414,0.173,8.448     c-0.006,0.008-0.006,0.018-0.01,0.026C0.109,8.558,0.078,8.652,0.05,8.748c-0.01,0.035-0.03,0.065-0.036,0.101     C-0.006,8.981-0.006,9.12,0.028,9.258l3.004,12l1,4c0.008,0.029,0.025,0.052,0.035,0.079c0.016,0.048,0.037,0.092,0.061,0.137     c0.033,0.065,0.074,0.125,0.122,0.182c0.029,0.034,0.06,0.068,0.093,0.101c0.061,0.053,0.125,0.094,0.194,0.131     c0.036,0.021,0.068,0.043,0.107,0.059c0.112,0.042,0.232,0.068,0.357,0.068h21.022c0.553,0,1-0.447,1-0.999     c0-0.553-0.447-1.001-1-1.001H5.783l-0.5-2h18.739c0.123,0,0.242-0.021,0.352-0.063c0.045-0.018,0.08-0.047,0.121-0.069     c0.062-0.033,0.126-0.062,0.179-0.107c0.039-0.033,0.065-0.078,0.102-0.119c0.042-0.051,0.089-0.095,0.122-0.15     c0.027-0.053,0.039-0.113,0.059-0.172c0.021-0.053,0.047-0.103,0.059-0.158l0.004-0.021v-0.011L27.91,2.824l3.36-0.839     C31.808,1.851,32.133,1.308,31.998,0.772z M4.783,20.014L2.244,9.873l3.104-0.372l1.505,10.513H4.783z M8.873,20.014L7.336,9.263     l3.119-0.374l0.505,11.125H8.873z M15.056,20.014h-2.089L12.449,8.649l3.116-0.373L15.056,20.014z M19.133,20.014H17.06     l0.52-11.98l3.102-0.371L19.133,20.014z M23.146,20.014h-1.994l1.576-12.598l2.133-0.255L23.146,20.014z M9.005,28.014     c-1.104,0-2.002,0.896-2.002,2.001c0,1.105,0.897,1.999,2.002,1.999c1.106,0,2.002-0.895,2.002-1.999     C11.007,28.912,10.111,28.014,9.005,28.014z M22.021,28.014c-1.105,0-2.002,0.896-2.002,2.001c0,1.105,0.896,1.999,2.002,1.999     c1.104,0,2.002-0.895,2.002-1.999C24.021,28.911,23.125,28.014,22.021,28.014z" fill="#FFFFFF"/>
		</g>
	</g>
</g>
<g>
</g>
<g>
</g>
<g>
</g>
<g>
</g>
<g>
</g>
<g>
</g>
<g>
</g>
<g>
</g>
<g>
</g>
<g>
</g>
<g>
</g>
<g>
</g>
<g>
</g>
<g>
</g>
<g>
</g>
</svg>
