<svg class="custom-icon" xmlns="http://www.w3.org/2000/svg" viewBox="0 0 100 100" style="width:60px;height:60px"><path class="inner-shape" d="M73.004 52.641c-.106-10.673 8.705-15.792 9.098-16.047-4.95-7.244-12.663-8.237-15.41-8.351-6.563-.664-12.807 3.864-16.137 3.864-3.322 0-8.463-3.766-13.906-3.667-7.153.106-13.75 4.159-17.433 10.566-7.433 12.897-1.903 32.004 5.34 42.463 3.54 5.12 7.762 10.87 13.303 10.665 5.337-.213 7.356-3.453 13.807-3.453 6.452 0 8.265 3.453 13.914 3.348 5.743-.107 9.38-5.218 12.896-10.353 4.066-5.94 5.74-11.691 5.838-11.986-.127-.059-11.198-4.3-11.31-17.049zM62.392 21.318c2.94-3.568 4.927-8.519 4.385-13.458-4.236.173-9.373 2.823-12.413 6.383-2.728 3.159-5.116 8.2-4.476 13.04 4.73.368 9.56-2.404 12.504-5.965z"/></svg>