<svg xmlns="http://www.w3.org/2000/svg" viewBox="0 0 64 64"><path d="M45.8 0H10C7.8 0 6 1.8 6 4v56c0 2.2 1.8 4 4 4h44c2.2 0 4-1.8 4-4V11.1L45.8 0zM47 6.5l3.8 3.5H47V6.5zM10 60V4h33v10h11v46H10z"/><path d="M21.5 35.5c.4 0 .9-.1 1.3-.3 1-.4 2.6-1.6 5.5-7.3.9-.3 2-.5 3.1-.8 1.4-.3 2.8-.5 4.1-.6 2.7 2.8 3.8 3.5 5.3 3.9.5.1.9.2 1.3.2 1.9 0 2.9-1.2 3.1-1.9.4-.9.5-2.8-1.4-4-1.3-.8-3.6-1.3-6.2-1.3h-.9c-.3-.4-.7-.8-1.1-1.2-1.3-1.4-2.3-2.6-3.1-3.8 1.1-3 1.3-4.5 1.2-5.8-.1-3.5-2.3-4.2-3.2-4.2-1.2 0-3.1 1-3.2 3.7-.1 2.2.2 4.1 1.7 6.7-.4 1-.9 2.1-1.4 3.3-.5 1.2-1 2.2-1.5 3.2-3.9 1.3-5.4 2.9-6.2 3.8-1.9 2-1.6 3.8-1.1 4.7.5.8 1.3 1.7 2.7 1.7zm20.8-8.2c.2.1.2.2.2.3-.1.1-.5.1-.9 0s-.8-.2-1.7-1c1.4.2 2.1.6 2.4.7zm-11.9-15c0-.2 0-.5.1-.6.1.2.2.6.3 1.2 0 .4 0 .9-.2 1.7-.2-.8-.2-1.6-.2-2.3zm-.3 11.9c.1-.2.2-.5.3-.7.2-.5.5-1 .7-1.5v.1l.1-.2c.5.6 1 1.2 1.6 1.9h-.1l.1.1c-.7.1-1.4.2-2.1.4-.3 0-.5.1-.7.2l.1-.3zm-8 7.1c.3-.3.8-.8 1.6-1.4-1.4 2.2-2 2.5-2.1 2.5h-.1l-.2-.3c.1.1.5-.4.8-.8zM25.5 42.8c-.4-.3-.9-.5-1.4-.6-.5-.1-1.1-.2-1.7-.2h-4.5v12.1h2.6v-4.8h1.9c1.4 0 2.5-.3 3.2-.9.8-.6 1.2-1.5 1.2-2.7 0-.7-.1-1.2-.3-1.7s-.6-.9-1-1.2zM24 46.4c-.1.2-.3.3-.4.4-.2.1-.4.2-.6.2s-.5.1-.7.1h-1.7v-2.9h1.7c.7 0 1.2.1 1.5.3.1.1.3.3.3.4.1.2.1.4.1.7s-.1.7-.2.8zM36.3 43.7c-.5-.5-1-.9-1.7-1.2-.7-.4-1.6-.5-2.5-.5h-4v12.1h4c1.8 0 3.2-.5 4.1-1.6.5-.5.8-1.2 1.1-1.9.2-.7.3-1.6.3-2.6 0-.9-.1-1.8-.3-2.5-.2-.7-.5-1.3-1-1.8zm-1.4 5.8c-.1.5-.2.9-.5 1.2-.2.4-.5.6-.9.8s-.9.3-1.5.3h-1.3v-7.7h1.4c1 0 1.8.3 2.2 1 .2.3.4.7.5 1.2.1.5.2 1 .2 1.7 0 .6 0 1.1-.1 1.5zM46.9 44.2V42H39v12.1h2.6v-5.2h4l-.1-2.2h-3.9v-2.5z"/></svg>