<svg id="Слой_1" xmlns="http://www.w3.org/2000/svg" viewBox="0 0 231 146.5"><style>.st0{fill:#06326e}.st1{fill:#0097d9}.st2{fill:#e40520}.st3{fill:#fff}</style><path class="st0" d="M219 146.5H12c-6.6 0-12-5.4-12-12V12C0 5.4 5.4 0 12 0h207c6.6 0 12 5.4 12 12v122.5c0 6.6-5.4 12-12 12z"/><path class="st1" d="M115.4 119.6c12.8-11.5 20.8-28.3 20.8-46.8s-8.1-35.3-20.8-46.9C104.2 15.7 89.4 9.5 73 9.5 38.1 9.5 9.8 37.8 9.8 72.8S38.1 136 73 136c16.4 0 31.3-6.2 42.4-16.4z"/><path class="st1" d="M115.4 119.6c12.8-11.5 20.8-28.3 20.8-46.8s-8.1-35.3-20.8-46.9v93.7z"/><path class="st2" d="M157.9 9.5c-16.4 0-31.2 6.2-42.4 16.4-2.2 2.1-4.3 4.3-6.3 6.7H122c1.7 2.1 3.3 4.5 4.8 6.7h-22.4c-1.4 2.2-2.6 4.5-3.7 6.7h29.7c1 2.2 2 4.5 2.7 6.7H97.9c-.7 2.2-1.4 4.5-1.9 6.8h38.7c.9 4.2 1.4 8.8 1.4 13.4 0 6.9-1.1 13.8-3.2 20.1h-35c.7 2.2 1.6 4.5 2.6 6.7h29.7c-1.1 2.2-2.2 4.6-3.6 6.7h-22.4c1.5 2.4 3.1 4.6 4.8 6.7h12.8c-2 2.4-4.1 4.6-6.4 6.7 11.3 10.2 26.1 16.4 42.4 16.4 34.9 0 63.2-28.3 63.2-63.2-.1-35.2-28.3-63.5-63.1-63.5z"/><path class="st2" d="M212.9 108c0-1.1.9-2 2-2s2 .9 2 2-.9 2.1-2 2.1c-1.2-.1-2-1-2-2.1zm1.9 1.6c.9 0 1.6-.7 1.6-1.6 0-.9-.7-1.5-1.6-1.5-.9 0-1.6.6-1.6 1.5s.8 1.6 1.6 1.6zm-.2-.7h-.5v-1.7h.7c.2 0 .4 0 .5.1.1 0 .2.2.2.4s-.1.4-.2.5l.2.7h-.5l-.2-.6h-.2v.6zm0-1h.4s.1-.1.1-.2l-.1-.1c-.1-.1-.2-.1-.2-.1h-.2v.4z"/><path class="st0" d="M63.2 90.4h-8L60 65.7 49.2 90.4h-6.7l-1.4-24.5-5.2 24.5h-7.2l6.1-32.1h12.5l.1 19.8 8.7-19.8h13.2zM151 90c-2.2.6-3.8.9-5.7.9-4 0-6.2-2-6.2-5.7 0-.7.1-1.6.2-2.4l.5-2.6.4-2 3.6-20h7.8l-1.1 6h4l-1 6.3h-4.1l-2.1 10.9c0 .5-.1.9-.1 1.1 0 1.4.9 1.9 2.7 1.9.9 0 1.6 0 2.1-.2l-1 5.8zM119.8 72.6c0 3.2 1.9 5.6 6 7.2 3.3 1.4 3.8 1.7 3.8 3 0 1.6-1.5 2.4-4.6 2.4-2.5 0-4.6-.4-7.2-1.1l-1.1 6.1h.4l1.5.2c.5.1 1.1.2 2.1.2 1.9.1 3.3.2 4.3.2 8.4 0 12.3-2.7 12.3-8.7 0-3.6-1.6-5.7-5.6-7.3-3.3-1.2-3.7-1.6-3.7-2.9 0-1.4 1.4-2.1 3.8-2.1 1.6 0 3.7.1 5.8.4l1.1-6c-2.1-.4-5.2-.6-7.1-.6-8.8 0-11.9 4.1-11.8 9zM88.6 90.4H82l.1-2.7c-2 2.1-4.7 3.1-8.3 3.1-4.2 0-7.2-2.9-7.2-7.1 0-6.3 5.1-10 13.9-10 .9 0 2 0 3.2.1.2-.9.2-1.2.2-1.6 0-1.7-1.4-2.5-5.1-2.5-2.2 0-4.7.4-6.5.7l-1.1.4-.6.1 1.1-5.8c4-1.1 6.6-1.5 9.4-1.5 6.8 0 10.4 2.7 10.4 7.7 0 1.4-.1 2.2-.7 5.2l-1.6 9.2-.2 1.7-.2 1.4-.2.9v.7zm-5.3-11.6c-.9-.2-1.2-.2-1.9-.2-4.5 0-6.7 1.4-6.7 4 0 1.6 1.1 2.6 2.9 2.6 3.2 0 5.6-2.6 5.7-6.4zM114.4 89.8c-2.6.7-5.2 1.1-8.1 1.1-8.8 0-13.4-4.1-13.4-11.8 0-8.9 5.8-15.5 13.8-15.5 6.6 0 10.7 3.7 10.7 9.4 0 2-.2 3.8-1 6.4h-15.6c-.1.5-.1.6-.1.9 0 3 2.4 4.6 6.9 4.6 2.9 0 5.3-.5 8.2-1.7l-1.4 6.6zm-3.7-15.5v-1.4c0-2.1-1.4-3.3-3.7-3.3-2.5 0-4.3 1.6-5.1 4.7h8.8zM198.3 78.5C197.2 87.2 191.1 91 183 91c-8.9 0-12.5-5.3-12.5-12 0-9.2 6.1-15.5 15.5-15.5 8.2 0 12.5 5.2 12.5 11.8.1 1.6.1 1.7-.2 3.2zm-7.9-3.1c0-2.7-1.1-5.3-4.3-5.3-4 0-6.6 4.8-6.6 8.9 0 3.6 1.7 6 4.6 6 1.7 0 5.3-2.4 6.1-6.4.1-1 .2-2.1.2-3.2z"/><path class="st3" d="M199.2 86.4c0-1.1 1-2 2.1-2s2 .9 2 2-.9 2.1-2 2.1-2.1-.9-2.1-2.1zm2.1 1.7c.9 0 1.5-.7 1.5-1.6 0-.9-.6-1.5-1.5-1.5s-1.6.6-1.6 1.5c0 .8.7 1.6 1.6 1.6zm-.2-.8h-.5v-1.7h.7c.2 0 .4 0 .5.1.1.1.2.2.2.4s-.1.5-.4.5l.4.7h-.5l-.2-.6h-.2v.6zm0-1h.4V86h-.5l.1.3c-.1 0 0 0 0 0zM65.2 88.6h-8l4.7-24.7-10.8 24.7H44L42.7 64 38 88.6h-7.2l6.1-32.2h12.4l.6 19.9 8.7-19.9h12.7zM153 88.2c-2.2.6-3.8.9-5.7.9-4 0-6.2-2-6.2-5.7 0-.7.1-1.5.2-2.4l.5-2.6.4-2 3.6-20h7.8l-1.1 6h4.1l-1.1 6.3h-4.1l-2 10.9c-.1.5-.2.9-.2 1.1 0 1.4.9 2 2.7 2 .9 0 1.6-.1 2.1-.2l-1 5.7z"/><path class="st0" d="M173.1 70l-.1-.9 1.5-4.1c-.4 0-.5 0-.6-.1-.4 0-.6-.1-.6-.1h-.7c-2.6 0-4.5 1.1-6.9 4.2l.9-4.7h-8.2l-5 26.1h7.8c1.1-6.1 1.6-9.4 2.2-12.3 1-4.7 4.5-6.8 7.1-6.3.2 0 .5 0 .9.1l.5.2 1.2-2.1z"/><path class="st3" d="M175.9 62.6c-.6-.2-.7-.2-.9-.2-.4-.1-.6-.1-.6-.2h-.9c-2.6 0-4.5 1.1-6.8 4.2l.7-4h-7.2l-4.8 26.2h7.9c2.9-16 4-18.9 7.8-18.9.2 0 .6.1 1 .1l.9.2 2.9-7.4zM121.8 70.7c0 3.2 1.9 5.6 6.1 7.2 3.2 1.4 3.7 1.7 3.7 3 0 1.6-1.5 2.4-4.6 2.4-2.4 0-4.6-.4-7.2-1.1l-1 6.1h.4l1.3.3c.5 0 1.2.1 2.1.1 1.9.2 3.3.2 4.5.2 8.3 0 12.3-2.7 12.3-8.7 0-3.6-1.6-5.7-5.7-7.3-3.3-1.2-3.7-1.6-3.7-2.9 0-1.4 1.4-2.1 4-2.1 1.5 0 3.7.1 5.7.4l1.1-6c-2.1-.4-5.2-.5-6.9-.5-9 .1-12.1 4.1-12.1 8.9zM90.6 88.6h-6.5l.1-2.7c-2 2.1-4.7 3.1-8.3 3.1-4.2 0-7.2-2.9-7.2-7.1 0-6.3 5.1-10 13.9-10 .9 0 2 0 3.2.1.2-.9.2-1.2.2-1.6 0-1.7-1.4-2.4-5.1-2.4-2.2 0-4.7.2-6.4.6l-1.1.4-.7.1 1.1-5.8c4-1 6.4-1.4 9.4-1.4 6.8 0 10.3 2.6 10.3 7.6 0 1.4-.1 2.4-.6 5.2L91.3 84l-.2 1.6-.2 1.4-.1.9-.2.7zm-5.7-11.7c-.9-.1-1.2-.1-1.7-.1-4.5 0-6.7 1.4-6.7 4 0 1.6 1 2.7 2.7 2.7 3.2 0 5.6-2.8 5.7-6.6zM116.4 87.9c-2.7.7-5.3 1.1-8.1 1.1C99.6 89 95 84.9 95 77.2c0-8.9 5.8-15.5 13.8-15.5 6.4 0 10.5 3.7 10.5 9.4 0 2-.2 3.8-.9 6.4h-15.8v.9c0 3 2.2 4.6 6.8 4.6 2.9 0 5.5-.5 8.2-1.6l-1.2 6.5zm-4.1-15.5V71c0-2.1-1.4-3.3-3.7-3.3-2.5 0-4.2 1.7-5 4.7h8.7zM200.4 76.7c-1.2 8.7-7.3 12.5-15.4 12.5-8.8 0-12.4-5.3-12.4-12 0-9.2 6.1-15.5 15.5-15.5 8.2 0 12.5 5.2 12.5 11.8.1 1.5.1 1.7-.2 3.2zm-8.2-3.4c0-2.7-1.1-5.2-4.3-5.2-4 0-6.4 4.7-6.4 8.9 0 3.5 1.7 5.8 4.5 5.8 1.7 0 5.5-2.4 6.1-6.3.1-1 .1-2.1.1-3.2z"/></svg>