<?xml version="1.0" encoding="utf-8"?>
<!-- Generator: Adobe Illustrator 21.0.0, SVG Export Plug-In . SVG Version: 6.00 Build 0)  -->
<svg version="1.1" id="Слой_1" xmlns="http://www.w3.org/2000/svg" xmlns:xlink="http://www.w3.org/1999/xlink" x="0px" y="0px"
	 viewBox="0 0 10.6 10.4" style="enable-background:new 0 0 10.6 10.4;" xml:space="preserve">
<style type="text/css">
	.st0{fill:#FFFFFF;stroke:#FFFFFF;stroke-width:0.1768;stroke-miterlimit:10;}
	.st1{fill:#BABABA;}
	.st2{fill:#FF000F;}
	.st3{stroke:#000000;stroke-width:0.1512;stroke-miterlimit:10;}
</style>
<rect x="0.4" y="0.4" class="st0" width="9.8" height="4.2"/>
<path class="st1" d="M1.6,2.3L1.5,2.1H1.1l0.2-0.3h0.3L2.4,3H2.1L1.7,2.5H1.2L0.8,3H0.6L1,2.2L1.6,2.3L1.6,2.3L1.6,2.3z"/>
<path class="st1" d="M4.4,2.7V3H2.9C2.8,3,2.8,3,2.7,2.9C2.6,2.9,2.6,2.8,2.6,2.7V1.8h0.3v0.7c0,0,0,0.1,0,0.1c0,0,0,0.1,0.1,0.1
	c0,0,0.1,0,0.1,0.1c0,0,0.1,0,0.1,0L4.4,2.7z"/>
<path class="st2" d="M5.3,3H5V2.1H4.2V1.8H6v0.3H5.3V3L5.3,3z"/>
<path class="st1" d="M6.2,2.1L6.2,2.1c0-0.1,0-0.2,0.1-0.2c0.1-0.1,0.2-0.1,0.3-0.1H8v0.3H6.2z M8,2.7V3H6.6C6.5,3,6.4,3,6.3,2.9
	C6.3,2.8,6.2,2.8,6.2,2.7V2.2H8v0.3H6.5v0.2L8,2.7L8,2.7z"/>
<path class="st1" d="M9.4,2.5H8.6V3H8.3V2.3h1.5V2.1H8.3V1.8h1.4c0.1,0,0.1,0,0.1,0S9.9,1.9,10,1.9c0,0,0,0.1,0,0.1
	c0,0.1,0,0.1,0,0.1v0.2c0,0.1,0,0.2-0.1,0.2C9.8,2.6,9.8,2.6,9.6,2.6L10,3H9.7L9.4,2.5z"/>
<rect x="0.2" y="0.2" class="st3" width="0.2" height="10"/>
</svg>
