<svg id="Слой_1" xmlns="http://www.w3.org/2000/svg" viewBox="0 0 204 127.5"><style>.st0{fill:#06326e}.st1{fill:#fab51d}.st2{fill:#e40520}.st3{fill:#fff}.st4{fill:none;stroke:#fff;stroke-width:.216;stroke-miterlimit:2.6131}</style><path class="st0" d="M192 127.7H12c-6.6 0-12-5.4-12-12V12C0 5.4 5.4 0 12 0h180c6.6 0 12 5.4 12 12v103.7c0 6.6-5.4 12-12 12z"/><path class="st1" d="M138.8 120.4l2.9-.1 2.9-.2 2.8-.4 2.7-.5 2.7-.6 2.7-.7 2.6-.9 2.6-1 2.5-1.2 2.4-1.2 2.3-1.4 2.3-1.4 2.2-1.6 2.1-1.6 2-1.8 2-1.9 1.9-1.9 1.7-2 1.7-2.2 1.5-2.2 1.5-2.2 1.4-2.4 1.2-2.4 1.1-2.5 1-2.5.9-2.6.8-2.7.6-2.7.5-2.8.3-2.8.2-2.8.1-2.9-.1-2.9-.2-2.8-.3-2.8-.5-2.8-.6-2.7-.8-2.6-.9-2.6-1-2.5-1.1-2.5-1.2-2.4-1.4-2.4-1.5-2.2-1.5-2.2-1.7-2.1-1.7-2.1-1.9-1.9-2-1.9-2-1.7-2.1-1.7-2.2-1.6-2.3-1.4-2.3-1.3-2.4-1.3-2.5-1.1-2.6-1-2.6-.9-2.7-.8-2.7-.6-2.7-.5-2.8-.3-2.9-.2-2.9-.1-2.8.1-2.9.2-2.8.3-2.7.5-2.7.6-2.7.8-2.6.9-2.5 1-2.5 1.1-2.4 1.3-2.4 1.3-2.2 1.4-2.2 1.6-2.1 1.7-2.1 1.7-1.9 1.9-1.9 1.9-1.7 2.1-1.7 2.1-1.5 2.2-1.5 2.2-1.3 2.4-1.3 2.4-1.1 2.5-1 2.5-.8 2.6-.8 2.6-.6 2.7-.5 2.8-.4 2.8-.2 2.8-.1 2.9.1 2.9.2 2.8.4 2.8.5 2.8.6 2.7.8 2.7.8 2.6 1 2.5 1.1 2.5 1.3 2.4 1.3 2.4 1.5 2.2 1.5 2.2 1.7 2.2 1.7 2 1.9 1.9 1.9 1.9 2.1 1.8 2.1 1.6 2.2 1.6 2.2 1.4 2.4 1.4 2.4 1.2 2.5 1.2 2.5 1 2.6.9 2.7.7 2.7.6 2.7.5 2.8.4 2.9.2 2.8.1z"/><path class="st2" d="M63.9 120.4l2.9-.1 2.8-.2 2.8-.4 2.8-.5 2.7-.6 2.7-.7 2.6-.9 2.5-1 2.5-1.2 2.4-1.2 2.3-1.4 2.3-1.4 2.2-1.6 2.1-1.6 2-1.8 2-1.9 1.8-1.9 1.8-2 1.6-2.2 1.6-2.2 1.4-2.2 1.4-2.4 1.2-2.4 1.1-2.5 1-2.5.9-2.6.8-2.7.6-2.7.5-2.8.3-2.8.2-2.8.1-2.9-.1-2.9-.2-2.8-.3-2.8-.5-2.8-.6-2.7-.8-2.6-.9-2.6-1-2.5-1.1-2.5-1.2-2.4-1.4-2.4-1.4-2.2-1.6-2.2-1.6-2.1-1.8-2.1-1.8-1.9-2-1.9-2-1.7-2.1-1.7-2.2-1.6-2.3-1.4-2.3-1.3-2.4-1.3-2.5-1.1-2.5-1-2.6-.9-2.7-.8-2.7-.6-2.8-.5-2.8-.3-2.8-.2-2.9-.1-2.9.1-2.8.2-2.8.3-2.8.5-2.7.6-2.7.8-2.6.9-2.5 1-2.5 1.1-2.4 1.3-2.4 1.3-2.2 1.4-2.2 1.6-2.1 1.7-2.1 1.7-1.9 1.9-1.9 1.9-1.8 2.1-1.6 2.1-1.6 2.2-1.4 2.2-1.4 2.4-1.2 2.4-1.2 2.5-1 2.5-.9 2.6-.7 2.6L9 53l-.5 2.8-.4 2.8-.2 2.8-.1 2.9.1 2.9.2 2.8.4 2.8.5 2.8.6 2.7.7 2.7.9 2.6 1 2.5 1.2 2.5 1.2 2.4 1.4 2.4 1.4 2.2 1.6 2.2 1.6 2.2 1.8 2 1.9 1.9 1.9 1.9 2.1 1.8 2.1 1.6 2.2 1.6 2.2 1.4 2.4 1.4 2.4 1.2 2.5 1.2 2.5 1 2.6.9 2.7.7 2.7.6 2.8.5 2.8.4 2.8.2 2.9.1z"/><path class="st1" d="M94.8 29.9h29.8v-3.1H97.4l-2.6 3.1zM90.4 36.6h34.2v-3H92.2l-1.8 3zM87 43.4h37.6v-3.1H88.4L87 43.4zM84.8 50.1h39.8v-3H85.7l-.9 3zM86.1 82.8h38.6v-3H85.1l1 3zM88.9 89.6h35.8v-3.1H87.5l1.4 3.1zM92.9 96.3h31.8v-3H91l1.9 3zM98.5 103.1h26.2V100H95.8l2.7 3.1zM83.4 56.9h41.2v-3.1H84l-.6 3.1zM108.5 76.1h15.7V73h-15.1l-.6 3.1zM109.7 69.3h14.5v-3h-13.9l-.6 3zM82.4 66.3h4.1v3h-3.9l-.2-3z"/><path class="st3" d="M74.8 62.6h-.3l-.3-.1H74l-.3-.1h-.4l-.3-.1h-.5l-.3-.1h-1.5l-.5.1H69.3l-.4.1-.3.1-.3.1-.3.2-.2.1-.2.2-.2.2-.1.2-.1.2v.7l.1.2.2.3.1.2.4.4.5.3.5.2.6.2.6.2.6.2.6.2.6.3.6.3.5.4.5.5.4.6.3.7.2.8.1 1.1-.1 1.1-.1.9-.3.8-.3.7-.4.6-.4.6-.5.5-.5.4-.6.3-.6.3-.6.3-.7.2-.6.1-.7.1-.6.1H63l-.5-.1H62l-.4-.1h-.4l-.4-.1h-.3l-.4-.1-.3-.1-.3-.1-.3-.1-.3-.1.9-4.2h.1l.2.1.3.1h.3l.4.1.3.1.4.1.5.1h.5l.5.1.5.1h1.1l.5.1h.5l.6-.1.5-.1.5-.1.3-.2.3-.3.2-.3.1-.3.1-.3.1-.2v-.6l-.1-.5-.4-.3-.4-.4-.6-.2-.7-.3-.7-.3-.7-.3-.8-.3-.7-.4-.7-.5-.6-.6-.4-.7-.4-.9-.2-1 .1-1.2.1-.7.1-.7.2-.7.2-.6.3-.6.3-.4.4-.5.5-.4.6-.4.6-.3.6-.3.8-.2.9-.2.9-.1 1-.1h2.5l.5.1h1.5l.4.1h.3l.3.1h.3l.2.1H75.4l.2.1h.1l-.9 4.3z"/><path class="st4" d="M74.8 62.6h-.3l-.3-.1H74l-.3-.1h-.4l-.3-.1h-.5l-.3-.1h-1.5l-.5.1H69.3l-.4.1-.3.1-.3.1-.3.2-.2.1-.2.2-.2.2-.1.2-.1.2v.7l.1.2.2.3.1.2.4.4.5.3.5.2.6.2.6.2.6.2.6.2.6.3.6.3.5.4.5.5.4.6.3.7.2.8.1 1.1-.1 1.1-.1.9-.3.8-.3.7-.4.6-.4.6-.5.5-.5.4-.6.3-.6.3-.6.3-.7.2-.6.1-.7.1-.6.1H63l-.5-.1H62l-.4-.1h-.4l-.4-.1h-.3l-.4-.1-.3-.1-.3-.1-.3-.1-.3-.1.9-4.2h.1l.2.1.3.1h.3l.4.1.3.1.4.1.5.1h.5l.5.1.5.1h1.1l.5.1h.5l.6-.1.5-.1.5-.1.3-.2.3-.3.2-.3.1-.3.1-.3.1-.2v-.6l-.1-.5-.4-.3-.4-.4-.6-.2-.7-.3-.7-.3-.7-.3-.8-.3-.7-.4-.7-.5-.6-.6-.4-.7-.4-.9-.2-1 .1-1.2.1-.7.1-.7.2-.7.2-.6.3-.6.3-.4.4-.5.5-.4.6-.4.6-.3.6-.3.8-.2.9-.2.9-.1 1-.1h2.5l.5.1h1.5l.4.1h.3l.3.1h.3l.2.1H75.4l.2.1h.1l-.9 4.3"/><path class="st3" d="M79.2 53.6h5.3l-.8 4.6h3.2l-.7 4.3-3.3-.1L81 72.9v.4l.1.3.2.3.2.2.4.1.4.1.4.1H83.9l.4-.1.3-.1h.2l.2-.1h.1l-.6 3.5-.2.1h-.1l-.1.1-.2.1h-.1l-.1.1-.2.1h-.2l-.2.1h-.4l-.2.1h-.3l-.2.1H79.1l-.6-.1-.6-.1-.5-.1-.5-.2-.3-.2-.3-.2-.3-.3-.2-.2-.1-.4-.1-.3-.1-.3v-.8l.1-.5v-.5l3.6-20.6z"/><path class="st4" d="M79.2 53.6h5.3l-.8 4.6h3.2l-.7 4.3-3.3-.1L81 72.9v.4l.1.3.2.3.2.2.4.1.4.1.4.1H83.9l.4-.1.3-.1h.2l.2-.1h.1l-.6 3.5-.2.1h-.1l-.1.1-.2.1h-.1l-.1.1-.2.1h-.2l-.2.1h-.4l-.2.1h-.3l-.2.1H79.1l-.6-.1-.6-.1-.5-.1-.5-.2-.3-.2-.3-.2-.3-.3-.2-.2-.1-.4-.1-.3-.1-.3v-.8l.1-.5v-.5l3.6-20.6"/><path class="st3" d="M91 69.6v1l.1.4.1.3.1.4.3.3.2.4.2.3.3.3.3.2.4.3.3.2.4.1.4.2.3.1h.5l.5.1h.5l.5.1h1.5l.5-.1h.5l.5-.1.5-.1.6-.2.5-.2.5-.2.6-.3.5-.4-.8 4.7-.3.1-.3.2-.3.1-.2.1-.3.1-.3.1-.3.1h-.3l-.4.1h-.4l-.4.1h-3.5l-1-.1-.9-.1-1-.2-.9-.3-.9-.4-.8-.4-.8-.6-.8-.6-.6-.8-.5-.9-.5-1-.3-1.1-.2-1.3-.1-1.4.1-1.5.1-.6.1-.7.1-.7.3-.8.2-.9.4-.8.4-.8.5-.8.6-.7.8-.8.8-.6 1-.6 1.1-.4 1.2-.4 1.3-.2 1.6-.1h.7l.8.1.8.1.7.2.8.3.7.4.7.4.6.5.6.7.5.7.3.9.3 1 .2 1.1v1.3l-.2 1.5-.2 1.5-.1 1.2H89.5l.9-3.7h8.2l.1-.5V65l-.1-.4-.1-.3-.1-.4-.1-.3-.2-.3-.2-.3-.2-.2-.3-.2-.3-.2-.2-.1-.3-.1-.3-.1-.4-.1h-.7l-.3.1-.3.1-.3.1-.4.1-.2.2-.3.2-.3.2-.2.3-.2.3-.3.3-.1.3-.2.3-.1.4-.1.4-.1.4-.8 3.9z"/><path class="st4" d="M91 69.6v1l.1.4.1.3.1.4.3.3.2.4.2.3.3.3.3.2.4.3.3.2.4.1.4.2.3.1h.5l.5.1h.5l.5.1h1.5l.5-.1h.5l.5-.1.5-.1.6-.2.5-.2.5-.2.6-.3.5-.4-.8 4.7-.3.1-.3.2-.3.1-.2.1-.3.1-.3.1-.3.1h-.3l-.4.1h-.4l-.4.1h-3.5l-1-.1-.9-.1-1-.2-.9-.3-.9-.4-.8-.4-.8-.6-.8-.6-.6-.8-.5-.9-.5-1-.3-1.1-.2-1.3-.1-1.4.1-1.5.1-.6.1-.7.1-.7.3-.8.2-.9.4-.8.4-.8.5-.8.6-.7.8-.8.8-.6 1-.6 1.1-.4 1.2-.4 1.3-.2 1.6-.1h.7l.8.1.8.1.7.2.8.3.7.4.7.4.6.5.6.7.5.7.3.9.3 1 .2 1.1v1.3l-.2 1.5-.2 1.5-.1 1.2H89.5l.9-3.7h8.2l.1-.5V65l-.1-.4-.1-.3-.1-.4-.1-.3-.2-.3-.2-.3-.2-.2-.3-.2-.3-.2-.2-.1-.3-.1-.3-.1-.4-.1h-.7l-.3.1-.3.1-.3.1-.4.1-.2.2-.3.2-.3.2-.2.3-.2.3-.3.3-.1.3-.2.3-.1.4-.1.4-.1.4-.8 3.9"/><path class="st3" d="M136.1 59.3l-.3-.1-.2-.1-.3-.1-.3-.2-.2-.1-.4-.1-.3-.1-.3-.1-.4-.1-.4-.1-.3-.1h-.4l-.5-.1h-2.3l-.5.1-.5.1-.6.1-.5.3-.5.2-.6.4-.5.4-.5.5-.4.6-.5.7-.4.8-.4.9-.4 1.1-.3 1.2-.1.7v.6l-.1.7v.7l.1.6.1.6.2.6.2.5.3.5.3.5.4.5.5.4.5.3.6.3.6.2.7.2.3.1h.3l.3.1h2.2l.5-.1.5-.1.4-.1.5-.1.5-.3.4-.2.4-.3.4-.3-.9 5-.1.1-.1.1-.1.1-.2.2-.2.1-.3.1-.3.2-.3.1-.5.1-.5.1-.5.1-.7.1h-2.5l-1.1-.1-.9-.1-.8-.1-.9-.3-.9-.4-.8-.5-.8-.5-.7-.7-.7-.7-.7-.9-.5-.9-.4-1.1-.4-1.1-.2-1.3-.1-1.3v-1.5l.3-1.6.1-.8.2-.7.2-.8.2-.7.2-.6.2-.7.3-.6.2-.6.3-.6.3-.5.3-.5.3-.5.4-.5.4-.5.3-.4.4-.4.5-.4.4-.3.5-.3.4-.3.5-.3.5-.3.6-.2.5-.2.6-.2.6-.1.6-.2.6-.1.7-.1.7-.1h2.6l.5.1.6.1.5.1.5.1.5.1.5.1.4.1.4.1.3.1.3.1.3.1.2.1.2.1h.1l-.9 5.2z"/><path class="st4" d="M136.1 59.3l-.3-.1-.2-.1-.3-.1-.3-.2-.2-.1-.4-.1-.3-.1-.3-.1-.4-.1-.4-.1-.3-.1h-.4l-.5-.1h-2.3l-.5.1-.5.1-.6.1-.5.3-.5.2-.6.4-.5.4-.5.5-.4.6-.5.7-.4.8-.4.9-.4 1.1-.3 1.2-.1.7v.6l-.1.7v.7l.1.6.1.6.2.6.2.5.3.5.3.5.4.5.5.4.5.3.6.3.6.2.7.2.3.1h.3l.3.1h2.2l.5-.1.5-.1.4-.1.5-.1.5-.3.4-.2.4-.3.4-.3-.9 5-.1.1-.1.1-.1.1-.2.2-.2.1-.3.1-.3.2-.3.1-.5.1-.5.1-.5.1-.7.1h-2.5l-1.1-.1-.9-.1-.8-.1-.9-.3-.9-.4-.8-.5-.8-.5-.7-.7-.7-.7-.7-.9-.5-.9-.4-1.1-.4-1.1-.2-1.3-.1-1.3v-1.5l.3-1.6.1-.8.2-.7.2-.8.2-.7.2-.6.2-.7.3-.6.2-.6.3-.6.3-.5.3-.5.3-.5.4-.5.4-.5.3-.4.4-.4.5-.4.4-.3.5-.3.4-.3.5-.3.5-.3.6-.2.5-.2.6-.2.6-.1.6-.2.6-.1.7-.1.7-.1h2.6l.5.1.6.1.5.1.5.1.5.1.5.1.4.1.4.1.3.1.3.1.3.1.2.1.2.1h.1l-.9 5.2"/><path class="st3" d="M182.6 78.4h-5.3l.4-2.1v-.1l-.3.3-.3.4-.3.3-.4.2-.3.3-.3.2-.4.2-.3.1-.4.2-.4.1-.3.1h-.4l-.4.1h-1.1l-1-.1-.9-.2-.8-.3-.8-.4-.6-.6-.7-.6-.5-.7-.4-.8-.4-.8-.3-.9-.2-1-.2-.9v-2l.1-.9.2-1 .2-1.1.4-1.1.4-.9.4-.9.5-.9.6-.7.6-.7.6-.6.7-.6.7-.5.7-.4.7-.3.8-.3.7-.1.8-.2H175.7l.5.1.5.1.5.1.4.2.4.1.4.2.3.3.3.2.3.2.2.3.3.2.1.3.2.2.2.2.1.3 1.3-7.5h5.1l-4.2 24.7z"/><path class="st4" d="M182.6 78.4h-5.3l.4-2.1v-.1l-.3.3-.3.4-.3.3-.4.2-.3.3-.3.2-.4.2-.3.1-.4.2-.4.1-.3.1h-.4l-.4.1h-1.1l-1-.1-.9-.2-.8-.3-.8-.4-.6-.6-.7-.6-.5-.7-.4-.8-.4-.8-.3-.9-.2-1-.2-.9v-2l.1-.9.2-1 .2-1.1.4-1.1.4-.9.4-.9.5-.9.6-.7.6-.7.6-.6.7-.6.7-.5.7-.4.7-.3.8-.3.7-.1.8-.2H175.7l.5.1.5.1.5.1.4.2.4.1.4.2.3.3.3.2.3.2.2.3.3.2.1.3.2.2.2.2.1.3 1.3-7.5h5.1l-4.2 24.7"/><path class="st1" d="M174 73.9l.5-.1.5-.1.5-.1.4-.2.4-.2.4-.3.4-.4.3-.3.3-.4.2-.4.3-.4.2-.5.2-.4.1-.5.1-.5.1-.6.1-.5.1-.5v-1.1l-.1-.5-.1-.4-.1-.5-.1-.4-.2-.4-.3-.4-.2-.3-.3-.2-.3-.3-.3-.1-.4-.1h-.9l-.5.1-.4.1-.5.2-.3.3-.4.3-.3.3-.3.3-.3.5-.3.4-.2.4-.3.5-.1.5-.2.6-.1.5-.2.6V70.1l.1.9.3.9.3.8.5.6.7.4.7.2z"/><path class="st3" d="M58 74.2l-.7 4.2h-4.8l.2-.7V77l.1-.6.1-.2-.3.3-.3.3-.3.2-.4.3-.5.3-.5.2-.4.2-.6.2-.5.2-.5.1-.6.1-.6.1h-.5l-.6.1-.5-.1-.5-.1-.7-.1-.6-.2-.5-.3-.5-.3-.4-.3-.4-.3-.3-.4-.2-.3-.2-.4-.2-.5-.2-.4-.1-.4-.1-.4v-.5l-.1-.4V73l.1-.7.1-.7.2-.7.2-.6.3-.6.4-.6.4-.5.4-.5.5-.4.5-.4.6-.4.5-.3.6-.2.7-.2.6-.2.7-.1h.1l.1-.1h.7l.3-.1h.7l.3-.1h.6l.3-.1h2.5l.3.1h.5l.1-.1.1-.4.1-.4V64l-.2-.4-.2-.4-.3-.2-.4-.3-.4-.2-.5-.1h-1l-.5-.1h-.6l-.6.1h-.7l-.6.1h-.6l-.5.1-.6.1-.6.1-.4.1-.5.1-.4.1-.4.1-.2.1-.2.1 1.3-4.5.4-.2.4-.1.5-.2.4-.1.5-.1h.5l.5-.1.5-.1H54.2l.6.1.6.2.6.1.5.3.6.2.6.4.5.3.5.4.4.5.4.5.3.6.1.6.2.6v.7l-.2.8-1.9 9.9z"/><path class="st4" d="M58 74.2l-.7 4.2h-4.8l.2-.7V77l.1-.6.1-.2-.3.3-.3.3-.3.2-.4.3-.5.3-.5.2-.4.2-.6.2-.5.2-.5.1-.6.1-.6.1h-.5l-.6.1-.5-.1-.5-.1-.7-.1-.6-.2-.5-.3-.5-.3-.4-.3-.4-.3-.3-.4-.2-.3-.2-.4-.2-.5-.2-.4-.1-.4-.1-.4v-.5l-.1-.4V73l.1-.7.1-.7.2-.7.2-.6.3-.6.4-.6.4-.5.4-.5.5-.4.5-.4.6-.4.5-.3.6-.2.7-.2.6-.2.7-.1h.1l.1-.1h.7l.3-.1h.7l.3-.1h.6l.3-.1h2.5l.3.1h.5l.1-.1.1-.4.1-.4V64l-.2-.4-.2-.4-.3-.2-.4-.3-.4-.2-.5-.1h-1l-.5-.1h-.6l-.6.1h-.7l-.6.1h-.6l-.5.1-.6.1-.6.1-.4.1-.5.1-.4.1-.4.1-.2.1-.2.1 1.3-4.5.4-.2.4-.1.5-.2.4-.1.5-.1h.5l.5-.1.5-.1H54.2l.6.1.6.2.6.1.5.3.6.2.6.4.5.3.5.4.4.5.4.5.3.6.1.6.2.6v.7l-.2.8-1.9 9.9"/><path class="st2" d="M53.5 69.3v-.1l-.1-.1h-.1l-.2-.1H51.4l-.3.1h-.5l-.3.1-.2.1h-.2l-.2.1h-.1l-.2.1-.2.1-.3.1-.2.1-.3.2-.2.1-.3.2-.3.2-.2.2-.2.2-.2.3-.1.3-.1.3-.1.3v.6l.1.5.2.4.2.3.3.2.3.1h1.7l.5-.1.4-.1.4-.2.4-.1.3-.2.3-.2.2-.2.3-.2.1-.2.2-.2.1-.3.1-.2.1-.2.1-.2.1-.6.2-.6.1-.6.1-.5z"/><path class="st3" d="M18.3 78.4h-5.1l4.2-24.8h9l.8 14.8 6.2-14.8h9.3l-4.3 24.8h-5.2l3.3-18.5h-.2l-7.7 18.5h-5.8l-.1-.7-.1-2.1-.2-2.9-.2-3.4-.1-3.4-.2-2.9-.1-2.2-.1-.9H21.4l-3.1 18.5z"/><path class="st4" d="M18.3 78.4h-5.1l4.2-24.8h9l.8 14.8 6.2-14.8h9.3l-4.3 24.8h-5.2l3.3-18.5h-.2l-7.7 18.5h-5.8l-.1-.7-.1-2.1-.2-2.9-.2-3.4-.1-3.4-.2-2.9-.1-2.2-.1-.9H21.4l-3.1 18.5"/><path class="st3" d="M151.8 74.2l-.8 4.2h-4.7V76.2l-.2.3-.3.3-.3.3-.4.2-.4.3-.5.2-.4.2-.5.2-.5.2-.5.1-.6.1-.5.1h-.5l-.6.1-.5-.1-.5-.1-.7-.1-.6-.2-.5-.3-.5-.3-.4-.3-.4-.3-.3-.4-.2-.3-.3-.4-.1-.5-.2-.4-.1-.4v-.4l-.1-.5v-1.5l.1-.7.2-.7.2-.6.3-.6.4-.6.4-.5.4-.5.5-.4.5-.4.5-.4.6-.3.6-.2.6-.2.7-.2.6-.1h.1l.2-.1h.7l.2-.1h.7l.3-.1h.7l.3-.1h2.5l.3.1h.6v-.1l.1-.4V64l-.2-.4-.2-.4-.3-.2-.3-.3-.4-.2-.5-.1h-.9l-.6-.1h-.6l-.6.1h-.6l-.6.1h-.6l-.6.1-.6.1-.5.1-.5.1-.5.1-.4.1-.3.1-.3.1-.2.1 1.3-4.5.4-.2.5-.1.4-.2.5-.1.4-.1h.5l.5-.1.5-.1h5.2l.6.1.6.2.6.1.6.3.5.2.6.4.5.3.5.4.4.5.4.5.3.6.2.6.1.6v.7l-.1.8-1.9 9.9z"/><path class="st3" d="M151 78.6l.1-.1.8-4.2-.2-.1-.8 4.2.1-.1v.3h.1v-.1l-.1.1z"/><path class="st3" d="M146.1 78.4l.2.2h4.7v-.3h-4.7l.1.1h-.3v.2h.2l-.2-.2z"/><path class="st3" d="M146.4 76.3l-.1-.1-.1.3v1.2l-.1.7h.3v-2.1l-.1-.1.1.1z"/><path class="st3" d="M139.1 78.7l.5.1.5.1h.6l.5-.1.6-.1.5-.1.5-.1.5-.2.5-.1.5-.3.5-.2.4-.3.4-.2.3-.3.3-.3.2-.3-.1-.1-.3.3-.3.2-.3.3-.4.2-.4.3-.4.2-.5.2-.4.2-.5.2-.6.1-.5.1-.5.1h-1.6l-.5-.1v.2zM134.5 73v.4l.1.4v.5l.1.4.1.5.2.4.1.4.3.4.2.4.3.4.4.3.5.3.4.3.6.3.6.2.7.1v-.2l-.6-.2-.6-.1-.5-.3-.5-.3-.4-.3-.4-.3-.3-.3-.2-.4-.2-.4-.2-.4-.2-.4-.1-.4v-.4l-.1-.5V73h-.3zM141.3 65.8l-.7.1-.6.1-.6.3-.6.2-.6.3-.6.4-.5.4-.5.5-.4.4-.4.6-.4.5-.3.6-.2.7-.2.7-.1.7-.1.7h.3v-.7l.1-.7.2-.6.2-.7.3-.6.4-.5.4-.5.4-.5.5-.4.5-.4.5-.3.6-.4.6-.2.6-.2.6-.2.6-.1v-.2z"/><path class="st3" d="M145.2 65.4h-1l-.4.1h-.6l-.3.1h-.4l-.2.1H141.4l-.1.1v.2H141.6l.2-.1h.5l.2-.1h.7l.3-.1h1l.2-.1h.5v-.2zM147.7 65.6l.2-.1H147.6l-.3-.1h-2.1v.2h.9l.4.1H147.9l.1-.1-.1.1h.1v-.1h-.3z"/><path class="st3" d="M147.9 64.4v.3l-.1.4v.3l-.1.2h.3v-.1l.1-.4v-.4l.1-.3h-.3zM145.7 62.5h.4l.4.2.4.1.3.2.3.3.2.3.2.4v.4h.3l-.1-.5-.2-.4-.2-.3-.3-.3-.4-.3-.4-.2-.4-.1h-.5v.2zM137.6 63.4l.2.1.2-.1.2-.1.3-.1.4-.1.5-.1.5-.1.5-.1.6-.1.6-.1h.6l.6-.1h2.9v-.2h-.5l-.6-.1h-.6l-.6.1h-1.2l-.6.1-.6.1-.6.1-.6.1h-.4l-.5.1-.4.2-.4.1-.3.1-.2.1.2.1h-.2z"/><path class="st3" d="M139 58.8l-.1.1-1.3 4.5h.2l1.3-4.5v.1l-.1-.2h-.1v.1l.1-.1z"/><path class="st3" d="M147.4 57.9h-.7l-.6-.1H144.3l-.5.1h-1.1l-.5.1h-.5l-.5.1-.5.1-.4.1-.5.1-.4.2-.4.2.1.2.4-.2.4-.1.4-.2.5-.1.4-.1h.5l.5-.1h.5l.5-.1h4.2v-.2zM153.9 64.3l.1-.8v-.7l-.2-.7-.2-.6-.3-.6-.4-.5-.4-.5-.5-.4-.5-.3-.6-.4-.6-.2-.6-.3-.6-.1-.6-.2-.6-.1h-.5v.2l.5.1h.6l.5.2.6.2.6.2.6.2.6.3.5.4.4.4.4.5.4.4.3.6.2.6.1.6v.7l-.1.8h.3z"/><path class="st3" d="M151.9 74.3l2-10h-.3l-1.9 9.9.2.1z"/><path class="st1" d="M147.2 69.3v-.1l-.1-.1h-.1l-.2-.1H145.4l-.3.1h-.5l-.3.1h-.3l-.2.1H143.5l-.2.1h-.2l-.2.1-.2.1-.3.2-.2.1-.3.2-.2.1-.3.2-.2.2-.2.3-.1.2-.2.3-.1.3-.1.4v.6l.1.5.2.4.2.3.3.2.3.1h1.7l.5-.1.5-.2.4-.1.3-.2.4-.2.3-.2.2-.2.3-.2.2-.3.2-.2.1-.2.1-.3.1-.2v-.2l.1-.5.1-.6.1-.5v-.5z"/><path class="st3" d="M186.1 75.9v-.5l.2-.5.3-.4.3-.4.4-.4.4-.2.5-.1.5-.1.6.1.5.1.4.2.4.4.3.4.3.4.2.5v.5h-.6v-.4l-.1-.4-.2-.4-.2-.3-.3-.3-.4-.2-.4-.1h-.9l-.4.1-.4.2-.3.3-.2.3-.2.4-.1.4-.1.4h-.5z"/><path class="st3" d="M187.8 75.9v-1.2h1.3l.2.1h.1l.2.1.1.1v.1l.1.2V75.6l-.1.1v.1l-.1.1h-.8l.1-.1H189.2l.1-.1.1-.1V75.3l-.1-.1h-.1l-.1-.1h-.8v.8h-.5zM186.1 75.9v.6l.2.5.3.5.3.4.4.3.4.2.5.2h1.1l.5-.2.4-.2.4-.3.3-.4.3-.5.2-.5v-.6h-.6v.5l-.1.4-.2.4-.2.3-.3.3-.4.2-.4.1-.5.1-.4-.1-.4-.1-.4-.2-.3-.3-.2-.3-.2-.4-.1-.4-.1-.4v-.1h-.5z"/><path class="st3" d="M187.8 75.9V77h.5v-.9h.4l.6.9h.4l-.6-.9h.2l.1-.1h.1l.1-.1h-1.8z"/><path class="st4" d="M186.1 76l.1-.5.2-.5.3-.5.3-.4.4-.3.5-.2.5-.2.5-.1.5.1.5.2.5.2.4.3.3.4.3.5.2.5.1.5-.1.5-.2.5-.3.5-.3.4-.4.3-.5.2-.5.2-.5.1-.5-.1-.5-.2-.5-.2-.4-.3-.3-.4-.3-.5-.2-.5-.1-.5m2.2 1h-.5v-2.3h1.4l.2.1.1.1.1.1.1.1v.5l-.1.1-.1.1-.1.1H189.1l.6.9h-.4l-.6-.9h-.5V77m.5-1.1h.5l.1-.1v-.5h-.4.1-.7v.8h.4m0 2.1h.4l.4-.1.4-.2.3-.3.2-.3.2-.4.1-.4v-1l-.1-.4-.2-.4-.2-.3-.3-.3-.4-.2-.4-.1h-.8l-.4.1-.4.2-.3.3-.2.3-.2.4-.1.4v1l.1.4.2.4.2.3.3.3.4.2.4.1h.4"/><path class="st3" d="M153.2 78.4h5.3l1.9-10.7.1-.4.1-.4.1-.5.2-.4.2-.4.2-.4.2-.4.3-.3.4-.3.3-.3.5-.3.5-.3.5-.1.6-.2.7-.1H166.5l.8-4.9h-.5l-.5.1-.5.1-.4.1-.4.2-.4.2-.4.2-.4.2-.3.3-.3.2-.3.3-.3.3-.3.4-.3.3-.3.4-.2.3.5-3.4h-5.3l-3.5 20.2z"/><path class="st4" d="M153.2 78.4h5.3l1.9-10.7.1-.4.1-.4.1-.5.2-.4.2-.4.2-.4.2-.4.3-.3.4-.3.3-.3.5-.3.5-.3.5-.1.6-.2.7-.1H166.5l.8-4.9h-.5l-.5.1-.5.1-.4.1-.4.2-.4.2-.4.2-.4.2-.3.3-.3.2-.3.3-.3.3-.3.4-.3.3-.3.4-.2.3.5-3.4h-5.3l-3.5 20.2"/><path class="st3" d="M103.2 78.4H108.6l1.8-10.7.1-.4.1-.4.1-.4.1-.4.2-.4.1-.3.3-.4.2-.3.3-.3.4-.3.4-.2.4-.2.6-.2.6-.1.6-.1.7-.1h.1l.1.1h.4l.1-.3.1-.3v-.4l.2-.5.1-.5.2-.6.2-.5.1-.4.2-.3.2-.4.2-.3.1-.3.2-.2.1-.1v-.1h-.2l-.1-.1h-1.1l-.6.1-.5.1-.4.1-.5.2-.4.1-.3.2-.4.3-.3.2-.3.3-.3.3-.2.3-.3.3-.3.4-.3.4-.3.3.7-3.4h-5.4l-3.5 20.2z"/><path class="st4" d="M103.2 78.4H108.6l1.8-10.7.1-.4.1-.4.1-.4.1-.4.2-.4.1-.3.3-.4.2-.3.3-.3.4-.3.4-.2.4-.2.6-.2.6-.1.6-.1.7-.1h.1l.1.1h.4l.1-.3.1-.3v-.4l.2-.5.1-.5.2-.6.2-.5.1-.4.2-.3.2-.4.2-.3.1-.3.2-.2.1-.1v-.1h-.2l-.1-.1h-1.1l-.6.1-.5.1-.4.1-.5.2-.4.1-.3.2-.4.3-.3.2-.3.3-.3.3-.2.3-.3.3-.3.4-.3.4-.3.3.7-3.4h-5.4l-3.5 20.2"/><path class="st1" d="M186.1 98.3v-.1l.2-.5.3-.4.3-.4.4-.3.4-.2.5-.1.5-.1.6.1.5.1.4.2.4.3.3.4.3.4.2.5v.1h-.6l-.1-.4-.2-.3-.2-.4-.3-.2-.4-.2-.4-.2h-.9l-.4.2-.4.2-.3.2-.2.4-.2.3-.1.4h-.6z"/><path class="st1" d="M187.8 98.3v-.7h1.3l.2.1h.1l.2.1.1.1v.1l.1.1v.2h-.4v-.2l-.1-.1h-.1l-.1-.1h-.8v.4h-.5zM186.1 98.7v-.4h.6l-.1.4h-.5zM187.8 98.7v-.4h.5v.4h.4l.2-.1h.4v-.1l.1-.1v-.1h.4v.1l-.1.2-.1.1h-1.8zM190.8 98.7v-.4h.6v.4h-.6z"/><path class="st1" d="M186.1 98.7v.6l.2.5.3.5.3.4.4.3.4.2.5.2h1.1l.5-.2.4-.2.4-.3.3-.4.3-.5.2-.5v-.6h-.6v.5l-.1.4-.2.4-.2.3-.3.3-.4.2-.4.1-.5.1-.4-.1-.4-.1-.4-.2-.3-.3-.2-.3-.2-.4-.1-.4-.1-.4v-.1h-.5z"/><path class="st1" d="M187.8 98.7v1.1h.5v-.9h.4l.6.9h.4l-.6-.9h.2l.1-.1h.1l.1-.1h-1.8z"/></svg>