<svg id="Слой_1" xmlns="http://www.w3.org/2000/svg" viewBox="0 0 180 113"><style>.st0{fill:url(#SVGID_1_)}.st1{fill:#f2a84d}.st2{fill:#107db0}.st3{fill:#1b557d}</style><linearGradient id="SVGID_1_" gradientUnits="userSpaceOnUse" x1="90.05" y1="113" x2="90.05" y2="1.9" gradientTransform="matrix(1 0 0 -1 0 114)"><stop offset="0" stop-color="#fff"/><stop offset="1" stop-color="#f8e4c3"/></linearGradient><path class="st0" d="M16.2 112C7.8 112 1 105.2 1 96.8V16.2C1 7.8 7.8 1 16.2 1h147.7c8.4 0 15.2 6.8 15.2 15.2v80.7c0 8.4-6.8 15.2-15.2 15.2L16.2 112z"/><path class="st1" d="M163.8 2c7.8 0 14.2 6.3 14.2 14.2v80.7c0 7.8-6.3 14.2-14.2 14.2H16.2C8.3 111 2 104.7 2 96.8V16.2C2 8.4 8.3 2 16.2 2h147.6m0-2H16.2C7.3 0 0 7.3 0 16.2v80.7c0 8.9 7.3 16.2 16.2 16.2h147.7c8.9 0 16.2-7.3 16.2-16.2V16.2C180 7.3 172.7 0 163.8 0z"/><g><path class="st2" d="M137.3 43.9c-4.1 0-7.3 1.1-9.8 1.6l-.8 6.2c1.2-.6 5.2-1.7 8.4-1.8s5.2.6 4.5 3.4c-9.6 0-16.1 2-17.5 8.2-1.9 10.7 9.8 10.4 14.5 5.7l-.6 2.6h8.6l3.7-17c1.6-7.2-5-9-11-8.9zm.6 17.4c-.5 2.3-2.3 3.3-4.5 3.4-1.9.1-3.6-1.6-2.4-3.6 1-1.7 3.6-2.1 5.2-2.1h2.1c-.1.8-.2 1.5-.4 2.3zM155.7 37.2l-7.1 32.6h8.7l7.2-32.6h-8.8zM115.6 37.3h-16l-7.1 32.6h9.3l2.4-10.8h6.6c6.5 0 11.9-4 13.3-10.7 1.7-7.7-3.9-11.1-8.5-11.1zm-.3 11.1c-.6 2.5-3.1 4.5-5.5 4.5h-4.3l1.9-8.9h4.6c2.5-.1 3.9 1.9 3.3 4.4z"/><g><path class="st3" d="M53.6 43.9c-4.1 0-7.3 1.1-9.6 1.6l-.8 6.2c1.1-.6 5-1.7 8.2-1.8s5.1.6 4.5 3.4c-9.5 0-15.9 2-17.3 8.2-1.9 10.7 9.7 10.4 14.2 5.7l-.6 2.6H61l3.7-17c1.5-7.2-5.1-9-11.1-8.9zm.7 17.4c-.5 2.3-2.4 3.3-4.5 3.4-1.9.1-3.5-1.6-2.3-3.6.9-1.7 3.6-2.1 5.1-2.1h2.2c-.2.8-.4 1.5-.5 2.3zM68.4 44.4H77l1.4 15.1 8.4-15.1h8.8L75.2 80.7h-9.6L71.9 70l-3.5-25.6zM32.3 37.3h-16L9.2 69.9h9.4L20.9 59h6.7c6.4 0 11.8-4 13.2-10.7 1.7-7.6-3.8-11-8.5-11zM32 48.4c-.6 2.5-3 4.5-5.4 4.5h-4.4l2-8.9h4.6c2.3-.1 3.9 1.9 3.2 4.4z"/></g><g><path class="st3" d="M166.4 41.4v-3.9H165V37h3.5v.5H167v3.9h-.6zM169 41.4V37h.9l1 3.1c.1.3.2.5.2.6 0-.2.1-.4.2-.7l1-3h.8v4.4h-.6v-3.7l-1.3 3.7h-.5l-1.3-3.7v3.7h-.4z"/></g></g></svg>