<svg xmlns="http://www.w3.org/2000/svg" width="23" height="23" viewBox="0 0 100.27 100.27"><g fill="#FFF"><circle cx="27.452" cy="89.518" r="8.062"/><path d="M53.762 81.455a8.06 8.06 0 0 1 8.062 8.062 8.058 8.058 0 0 1-8.062 8.062 8.062 8.062 0 0 1 0-16.124zM99.934 5.568a4.596 4.596 0 0 0-5.996-2.539L77.08 9.843a4.55 4.55 0 0 0-1.047.616c-1.19.603-2.129 1.687-2.43 3.097l-2.416 12.148c-.342-.041-.667-.109-1.013-.109H8.697C3.899 25.595 0 29.729 0 34.804v.955L11.209 68.7c1.451 4.935 4.546 8.104 8.987 8.104h43.011c4.161 0 7.625-3.101 8.487-7.221.144-.312.28-.64.355-.988L83.61 17.128l13.78-5.571a4.598 4.598 0 0 0 2.544-5.989zM66.533 49.115l-3.856 18.199v.287H21.4l-.698-.954L9.623 34.811h59.751l-2.841 14.304z"/></g></svg>