<svg id="Слой_1" xmlns="http://www.w3.org/2000/svg" viewBox="0 0 187 118"><style>.st0{fill:#fff}.st1{fill:#005280}.st2{fill:#f3a815}</style><path class="st0" d="M186.9 13.3c0-9-4.7-13.4-13.7-13.4H13.6c-4.5 0-7.9 1.2-10 3.7C1.1 6.1-.1 9.3-.1 13.4v91.1c0 4.1 1.2 7.2 3.7 9.8 2.5 2.5 5.8 3.7 10 3.7h159.6c9.1 0 13.7-4.5 13.7-13.4V13.3z"/><path class="st1" d="M186.9 13.3c0-9-4.7-13.4-13.7-13.4H13.6c-4.5 0-7.9 1.2-10 3.7C1.1 6.1-.1 9.3-.1 13.4v91.1c0 4.1 1.2 7.2 3.7 9.8 2.5 2.5 5.8 3.7 10 3.7h159.6c9.1 0 13.7-4.5 13.7-13.4V13.3zM173.2 2c7.5 0 11.3 3.8 11.3 11.3v91.1c0 7.6-3.8 11.3-11.3 11.3H13.6c-3.6 0-6.4-1.1-8.4-3.2-2.1-2.1-3.2-4.9-3.2-8.1V13.3C2 5.8 5.8 2 13.6 2h159.6z"/><path class="st1" d="M14.8 7.2c-3 0-5 .5-6 1.6-.9 1.2-1.3 3.2-1.3 6.1v19.7h171.8V14.9c0-5.2-2.5-7.6-7.6-7.6L14.8 7.2z"/><path class="st2" d="M7.5 102.6c0 5.2 2.5 7.9 7.4 7.9h156.8c5.1 0 7.6-2.7 7.6-7.9V82.9H7.5v19.7z"/><path class="st1" d="M64.4 43c0 .9-.1 1.6-.5 2.1L51.5 66.7l-.8-26.3H30.9l6.7 3.2c1.9 1.2 2.9 2.8 2.9 4.7l1.8 27.9H52l23.2-35.9H63.3c.7.7 1.1 1.7 1.1 2.7zM144.5 41.5l.8-1.1h-12.1c.4.4.6.6.6.8-.1.6-.4.9-.6 1.3l-17.6 32.1c-.4.6-.8 1.1-1.3 1.6h10l-.5-1.1c0-.9.5-2.6 1.6-5l2.1-4h10.3c.4 3.3.7 6.1.8 8.1l-.8 1.9H150l-1.8-2.7-3.7-31.9zm-7.4 19.7h-7.4l6.3-12.1 1.1 12.1zM106.5 38.6c-3.8 0-7.1 1.1-10 3.2-3.2 1.8-4.7 4.2-4.7 7.1 0 3.3 1.1 6.2 3.4 8.4l6.9 4.7c2.5 1.8 3.7 3.3 3.7 4.7 0 1.3-.6 2.5-1.8 3.5-1.2.9-2.5 1.3-4.2 1.3-2.5 0-6.7-1.8-12.6-5v6.6c4.6 2.8 9.1 4.2 13.4 4.2 4.1 0 7.6-1.1 10.5-3.7 3.2-2.3 4.7-5.1 4.7-8.1 0-2.5-1.1-4.9-3.7-7.4l-6.6-4.7c-2.2-1.8-3.4-3.3-3.4-4.5 0-2.8 1.6-4.2 5-4.2 2.3 0 5.6 1.3 10 4l1.3-6.9c-3.7-2.2-7.6-3.2-11.9-3.2zM80.2 76.3c-.1-1.5-.4-2.8-.6-4.2l9-29 2.1-2.6H77.8c.1.6.3 1.5.4 2.1 0 .6 0 1.4-.1 2.1l-9 28.7-1.8 2.9h12.9z"/></svg>