<svg xmlns="http://www.w3.org/2000/svg" viewBox="0 0 54.98 5.83">
  <title>ALTER</title>  
  <path d="M5.87,2.26l-.58-.72H3.17L4.36,0H6l4.36,5.83H8.69L6.86,3.58H3.54L1.68,5.83H0L2.68,2.26Z" fill="#f7f6f6"/>
  <path d="M22.05,4.24V5.83h-8.3a2.52,2.52,0,0,1-1.47-.42,1.25,1.25,0,0,1-.6-1V0h1.65V3.44a.51.51,0,0,0,.1.31.94.94,0,0,0,.29.26,1.7,1.7,0,0,0,.44.18,2.2,2.2,0,0,0,.55.06Z" fill="#f7f6f6"/>
  <path d="M27.23,5.83H25.58V1.54H21.25V0H31.63V1.54h-4.4Z" fill="#ff000f"/>
  <path d="M32.92,1.54V1.45a1.22,1.22,0,0,1,.6-1A2.48,2.48,0,0,1,35,0h8.3V1.54Zm10.38,2.7V5.83H35a2.52,2.52,0,0,1-1.47-.42,1.25,1.25,0,0,1-.6-1V2.2H43.31V3.58H34.57v.66Z" fill="#f7f6f6"/>
  <path d="M51.08,3.58H46.24V5.83H44.59V2.2h8.67V1.54H44.59V0h8.3a3.46,3.46,0,0,1,.83.09,2,2,0,0,1,.66.29,1.4,1.4,0,0,1,.43.48,1.39,1.39,0,0,1,.16.68V2.2a1.15,1.15,0,0,1-.51,1.07,3.12,3.12,0,0,1-1.58.31L55,5.83h-1.8Z" fill="#f7f6f6"/>
</svg>
